# xmcd
#
# Track frame offsets: 
#        150
#        21095
#        49287
#        61822
#        67687
#        87417
#        97217
#        118820
#        136975
#        157787
#        176555
#        191595
#        198257
#        214562
#        218670
#        246387
#        273242
#        282787
#        309505
#
# Disc length: 4417 seconds
#
# Revision: 0
# Processed by: cddbd v1.5.2PL0 Copyright (c) Steve Scherf et al.
# Submitted via: ExactAudioCopy v0.99pb3
#
DISCID=0f113f13
DTITLE=Tim'm West - Songs from Red Dirt
DYEAR=2004
DGENRE=Hip-Hop
TTITLE0=Ten
TTITLE1=Analytics
TTITLE2=Elemental
TTITLE3=Change Interlude
TTITLE4=Red Dirt
TTITLE5=Sixteen
TTITLE6=Shine
TTITLE7=Blingizm
TTITLE8=These Days
TTITLE9=Change
TTITLE10=Anticipatience
TTITLE11=Twenty-Five
TTITLE12=Body Rock
TTITLE13=Househead
TTITLE14=Playboys Playgirls
TTITLE15=Welcome to Your Life
TTITLE16=Thirty
TTITLE17=Seize the Day
TTITLE18=Dust
EXTD=
EXTT0=
EXTT1=
EXTT2=
EXTT3=
EXTT4=
EXTT5=
EXTT6=
EXTT7=
EXTT8=
EXTT9=
EXTT10=
EXTT11=
EXTT12=
EXTT13=
EXTT14=
EXTT15=
EXTT16=
EXTT17=
EXTT18=
PLAYORDER=
